<svg xmlns="http://www.w3.org/2000/svg" width="64" height="64" shape-rendering="geometricPrecision" text-rendering="geometricPrecision" image-rendering="optimizeQuality" fill-rule="evenodd" clip-rule="evenodd" viewBox="0 0 640 640"><path d="M598.661 239.979h-35.882c-21.97 0-41.245-18.603-42.757-40.004 0-114.167-92.044-200.01-207.003-200.01H208.124C93.237-.035.07 92.493-.012 206.649v226.774c0 114.167 93.25 206.613 208.136 206.613h224c114.957 0 207.887-92.446 207.887-206.613V286.94c0-22.808-18.401-46.938-41.374-46.938l.023-.024zm-398.674-79.997H320c21.992 0 40.004 18.012 40.004 40.004 0 21.993-18.012 40.005-40.004 40.005l-120.013-.012c-21.992 0-40.004-18.012-40.004-40.004 0-22.005 18.012-40.005 40.004-40.005v.012zm240.027 320H199.987c-21.992 0-40.004-18-40.004-40.004 0-21.993 18.012-40.005 40.004-40.005l240.027.024c21.992 0 40.004 18 40.004 40.004 0 21.993-18.012 40.005-40.004 40.005v-.024z" fill="white"/></svg>