<?xml version="1.0" encoding="iso-8859-1"?>
<!-- Uploaded to: SVG Repo, www.svgrepo.com, Generator: SVG Repo Mixer Tools -->
<svg fill="#000000" height="800px" width="800px" version="1.1" id="Layer_1" xmlns="http://www.w3.org/2000/svg" xmlns:xlink="http://www.w3.org/1999/xlink" 
	 viewBox="0 0 512 512" xml:space="preserve">
<g>
	<g>
		<g>
			<path d="M256,136.533c-65.877,0-119.467,53.589-119.467,119.467S190.123,375.467,256,375.467S375.467,321.877,375.467,256
				S321.877,136.533,256,136.533z M256,349.867c-51.755,0-93.867-42.112-93.867-93.867c0-51.755,42.112-93.867,93.867-93.867
				c51.755,0,93.867,42.112,93.867,93.867C349.867,307.755,307.755,349.867,256,349.867z"/>
			<path d="M256,179.2c-42.342,0-76.8,34.458-76.8,76.8s34.458,76.8,76.8,76.8s76.8-34.458,76.8-76.8S298.342,179.2,256,179.2z"/>
			<path d="M366.225,68.267h-220.45c-42.735,0-77.508,34.773-77.508,77.508v220.45c0,42.735,34.773,77.508,77.508,77.508h220.45
				c42.735,0,77.508-34.773,77.508-77.508v-220.45C443.733,103.04,408.96,68.267,366.225,68.267z M256,392.533
				c-75.281,0-136.533-61.252-136.533-136.533S180.719,119.467,256,119.467S392.533,180.719,392.533,256
				S331.281,392.533,256,392.533z M392.533,145.067c-14.14,0-25.6-11.46-25.6-25.6s11.46-25.6,25.6-25.6
				c14.14,0,25.6,11.46,25.6,25.6S406.673,145.067,392.533,145.067z"/>
			<path d="M366.225,0h-220.45C65.399,0,0,65.399,0,145.775v220.45C0,446.601,65.399,512,145.775,512h220.45
				C446.601,512,512,446.601,512,366.225v-220.45C512,65.399,446.601,0,366.225,0z M460.8,366.225
				c0,52.147-42.428,94.575-94.575,94.575h-220.45c-52.147,0-94.575-42.428-94.575-94.575v-220.45
				c0-52.147,42.428-94.575,94.575-94.575h220.45c52.147,0,94.575,42.428,94.575,94.575V366.225z"/>
		</g>
	</g>
</g>
</svg>